<?xml version="1.0" standalone="no"?>
<!DOCTYPE svg PUBLIC "-//W3C//DTD SVG 20010904//EN"
 "http://www.w3.org/TR/2001/REC-SVG-20010904/DTD/svg10.dtd">
<svg version="1.0" xmlns="http://www.w3.org/2000/svg"
 width="1285.000000pt" height="1285.000000pt" viewBox="0 0 1285.000000 1285.000000"
 preserveAspectRatio="xMidYMid meet">
<metadata>
Created by potrace 1.11, written by Peter Selinger 2001-2013
</metadata>
<g transform="translate(0.000000,1285.000000) scale(0.100000,-0.100000)"
fill="#000000" stroke="none">
<path d="M4925 10253 c-254 -10 -646 -80 -845 -152 -310 -111 -459 -186 -715
-356 -181 -121 -315 -233 -495 -414 -507 -510 -787 -1079 -878 -1781 -14 -109
-16 -311 -19 -1565 -1 -850 1 -1490 7 -1562 40 -516 292 -965 725 -1293 311
-236 659 -350 1070 -350 167 -1 211 4 372 36 309 62 594 209 826 424 l99 92
66 -64 c186 -177 390 -311 592 -387 180 -69 425 -113 620 -114 292 0 558 57
775 166 166 84 311 185 458 319 l89 81 86 -86 c48 -47 130 -118 182 -157 146
-109 421 -238 580 -271 176 -37 284 -49 435 -49 375 0 669 82 968 272 125 79
189 131 306 247 169 166 262 293 364 501 90 182 135 334 162 545 15 118 16
273 13 1625 -4 1574 -4 1541 -48 1775 -96 509 -271 897 -593 1313 -170 220
-479 512 -717 676 -137 95 -334 207 -462 262 -56 25 -121 53 -143 64 -46 21
-90 36 -265 90 -285 88 -831 144 -985 101 -77 -21 -232 -76 -315 -111 -41 -17
-93 -38 -114 -46 -22 -8 -44 -18 -50 -23 -22 -17 -223 -91 -306 -113 -121 -32
-289 -31 -380 2 -36 12 -70 26 -76 31 -19 15 -256 106 -359 137 -324 99 -692
148 -1030 135z m218 -1153 c38 -6 102 -24 143 -41 90 -37 333 -197 469 -307
128 -105 311 -199 400 -208 92 -9 128 5 250 103 203 163 314 233 480 303 122
51 308 108 413 126 293 49 663 33 922 -42 30 -8 69 -19 85 -24 85 -24 321
-140 421 -207 159 -107 392 -323 494 -458 156 -206 295 -491 336 -689 58 -281
55 -183 56 -1726 0 -778 -3 -1435 -7 -1460 -11 -69 -41 -173 -60 -211 -51 -97
-185 -225 -290 -275 -103 -50 -197 -67 -330 -61 -111 6 -160 18 -259 69 -116
59 -236 184 -292 303 -67 143 -64 74 -64 1595 0 1352 0 1377 -20 1449 -26 92
-49 139 -112 223 -88 116 -234 207 -376 234 -130 25 -240 15 -367 -33 -185
-69 -331 -230 -380 -418 -24 -91 -26 -188 -28 -1590 l-2 -1300 -32 -92 c-37
-106 -61 -145 -135 -224 -78 -82 -154 -135 -254 -176 -77 -30 -103 -36 -194
-41 -110 -5 -202 9 -293 45 -169 66 -322 238 -379 423 l-22 75 -6 1420 -6
1420 -22 65 c-57 170 -202 327 -360 389 -201 79 -409 62 -589 -49 -151 -93
-258 -247 -288 -415 -12 -67 -14 -308 -15 -1440 0 -1333 -1 -1362 -21 -1445
-59 -248 -280 -447 -544 -490 -76 -12 -226 3 -301 31 -157 59 -299 185 -372
329 -75 149 -72 94 -69 1685 4 1388 4 1401 26 1525 44 253 110 442 224 637
225 387 590 701 997 859 236 90 581 141 773 114z"/>
</g>
</svg>
